<svg width="11" height="10" viewBox="0 0 11 10" fill="none" xmlns="http://www.w3.org/2000/svg">
<path opacity="0.7" fill-rule="evenodd" clip-rule="evenodd" d="M1.2428 0.757197C0.852279 1.14772 0.852279 1.78089 1.2428 2.17141L4.07122 4.99983L1.24263 7.82841C0.852104 8.21894 0.852104 8.8521 1.24263 9.24263C1.63315 9.63315 2.26632 9.63315 2.65684 9.24263L5.48543 6.41404L8.31387 9.24248C8.7044 9.633 9.33756 9.633 9.72808 9.24248C10.1186 8.85195 10.1186 8.21879 9.72808 7.82826L6.89965 4.99983L9.72791 2.17156C10.1184 1.78104 10.1184 1.14787 9.72791 0.757348C9.33739 0.366824 8.70422 0.366823 8.3137 0.757348L5.48543 3.58561L2.65702 0.757197C2.26649 0.366673 1.63333 0.366673 1.2428 0.757197Z" fill="white"/>
</svg>
