<svg width="70" height="52" viewBox="0 0 70 52" fill="none" xmlns="http://www.w3.org/2000/svg">
<path fill-rule="evenodd" clip-rule="evenodd" d="M23.4672 5.88598C23.3938 6.05375 23.4672 6.25298 23.5197 6.39979C23.5826 6.57804 23.6665 6.80873 23.7294 7.02893C23.8552 7.40642 24.002 7.81536 24.1278 8.21382L26.5396 15.4385H43.9249C44.0508 14.7779 44.4807 13.7188 44.7009 13.0477L46.9239 6.48367C47.1231 5.91744 47.0811 5.96987 46.9763 5.88598C46.6827 5.6553 46.2842 6.54658 45.7599 7.1967C44.6065 8.64373 42.7505 10.4683 40.538 10.1117C39.0386 9.87057 38.0424 8.75908 37.3818 7.84682C36.1969 6.23201 36.113 5.11004 35.5992 4.21875H34.8233C34.2571 6.73533 31.4469 11.6531 27.5881 9.71328C26.1096 8.96879 25.0296 7.7839 24.1488 6.43124C23.6455 5.66578 23.8342 5.74967 23.4672 5.88598Z" fill="#FE9B0E"/>
<path fill-rule="evenodd" clip-rule="evenodd" d="M28.8153 4.89973C28.6999 6.71377 28.4378 7.5736 28.0708 9.15694C29.8114 9.98532 31.6464 8.8948 32.0973 7.91963C31.6674 7.65748 31.0173 6.94445 30.6398 6.48308C30.1889 5.92734 29.8114 5.31916 29.3606 4.75293L28.8258 4.88925L28.8153 4.89973Z" fill="#FE9B0E"/>
<path fill-rule="evenodd" clip-rule="evenodd" d="M38.4517 8.02474C39.0703 8.80068 40.8739 10.1638 42.4782 9.13623C42.0168 7.78357 41.849 6.46236 41.7337 4.92096L41.115 4.76367C40.8739 5.34039 40.2552 6.05342 39.8882 6.52528L38.4621 8.02474H38.4517Z" fill="#FE9B0E"/>
<path fill-rule="evenodd" clip-rule="evenodd" d="M34.7918 0.841599C32.7366 1.51269 33.7852 4.4487 35.767 3.81955C37.623 3.23235 36.7946 0.191483 34.7918 0.841599Z" fill="#FE9B0E"/>
<path fill-rule="evenodd" clip-rule="evenodd" d="M47.1962 3.44267C45.6862 3.88307 46.3573 5.96973 47.7834 5.57127C49.1046 5.20427 48.6013 3.03372 47.1962 3.44267Z" fill="#FE9B0E"/>
<path fill-rule="evenodd" clip-rule="evenodd" d="M22.7548 3.46304C21.2763 3.91393 21.9788 6.04254 23.4154 5.57068C24.6317 5.17222 24.1599 3.03313 22.7548 3.46304Z" fill="#FE9B0E"/>
<path fill-rule="evenodd" clip-rule="evenodd" d="M28.5003 2.87638C27.4518 3.24338 27.997 4.90013 29.119 4.45973C30.0627 4.08224 29.6748 2.46744 28.5003 2.87638Z" fill="#FE9B0E"/>
<path fill-rule="evenodd" clip-rule="evenodd" d="M41.388 2.88663C40.3499 3.30606 40.8952 4.86843 42.0067 4.46997C42.9714 4.12394 42.4785 2.44622 41.388 2.88663Z" fill="#FE9B0E"/>
<path fill-rule="evenodd" clip-rule="evenodd" d="M8.80859 21.426C28.6057 15.3443 40.2868 13.9182 61.3107 21.6777C42.1742 11.8735 30.231 11.5904 8.80859 21.426Z" fill="#FE9B0E"/>
<path fill-rule="evenodd" clip-rule="evenodd" d="M66.6478 44.3575C67.5286 44.3575 68.1053 44.4099 68.4933 44.4309C69.07 44.4938 69.2063 44.7245 69.2378 45.0495C69.2378 45.1124 69.2483 45.1754 69.2483 45.3012C69.2588 45.427 69.3112 45.4899 69.3741 45.4899C69.437 45.4899 69.4999 45.4375 69.5104 45.2697C69.5104 45.0076 69.5943 43.9171 69.5943 43.7912C69.5943 43.4872 69.6048 43.4242 69.4894 43.4242C69.4265 43.4242 69.3426 43.4452 69.1329 43.4872C68.9861 43.5081 68.7974 43.5396 68.4828 43.5396H63.6069C63.198 43.5396 62.5269 43.4872 62.3696 43.4557C62.2019 43.4347 62.1075 43.3823 62.0551 43.3823C61.9921 43.3823 61.9397 43.4557 61.9083 43.613C61.8244 44.0953 61.73 44.6511 61.6671 45.1649C61.6566 45.2907 61.6776 45.3851 61.7615 45.3851C61.8349 45.3851 61.8768 45.3012 61.8978 45.2278C61.9292 45.1544 61.9607 45.0705 61.9817 44.9971C62.1075 44.5672 62.3172 44.4204 62.9149 44.3889C63.4497 44.347 64.1522 44.368 64.5716 44.368V48.4259C64.5716 49.464 64.5716 50.2085 64.5192 50.6594C64.4877 50.9635 64.4143 51.1732 64.1627 51.2256C64.0264 51.2466 63.9215 51.2466 63.8062 51.2571C63.6803 51.2676 63.586 51.3095 63.586 51.3829C63.586 51.4668 63.6594 51.4983 63.8481 51.4983C64.1732 51.4983 65.3476 51.4563 65.5049 51.4563C65.6622 51.4563 66.8051 51.4983 67.5601 51.4983C67.7593 51.4983 67.8222 51.4563 67.8222 51.4039C67.8222 51.3305 67.7698 51.2886 67.581 51.2571C67.4028 51.2466 67.277 51.2361 67.1406 51.2047C66.8156 51.1522 66.7212 50.8796 66.7002 50.6175C66.6583 50.1666 66.6478 49.2333 66.6478 48.4259V44.368V44.3575ZM51.3281 48.4155C51.3281 49.0027 51.3176 49.5899 51.3176 49.9883C51.2757 50.7328 51.2442 51.1417 50.8877 51.2047C50.7724 51.2256 50.6885 51.2256 50.5732 51.2361C50.3844 51.2361 50.353 51.299 50.353 51.341C50.353 51.4144 50.4054 51.4773 50.6151 51.4773C51.2338 51.4773 51.758 51.4354 52.2719 51.4354C53.4253 51.4354 54.2117 51.4983 55.8475 51.4983C56.2564 51.4983 56.3403 51.4878 56.4242 51.2152C56.4766 51.0054 56.5815 50.1561 56.5815 49.6947C56.5815 49.5584 56.571 49.4745 56.4871 49.4745C56.4137 49.4745 56.3613 49.5374 56.3403 49.6633C56.2459 50.1561 56.1201 50.4077 55.816 50.5231C55.5119 50.6384 55.082 50.6489 54.7989 50.6489C53.5616 50.6489 53.4253 50.4811 53.4148 49.7367C53.4043 49.3067 53.4148 48.8034 53.4148 48.4574V47.6919C53.4148 47.629 53.4253 47.6081 53.4882 47.6081C53.8237 47.6081 54.6626 47.6185 54.9981 47.6395C55.5749 47.6814 55.6902 47.8702 55.7531 48.2057C55.7636 48.2791 55.7636 48.3525 55.7741 48.4155C55.7846 48.5413 55.837 48.5832 55.8999 48.5832C55.9733 48.5832 56.0048 48.5413 56.0048 48.3945C56.0048 48.2791 56.0153 47.7129 56.0257 47.4822C56.0362 47.0943 56.1096 46.6329 56.1096 46.5071C56.1096 46.4441 56.0992 46.3707 56.0257 46.3707C55.9733 46.3707 55.9314 46.4127 55.879 46.5071C55.7531 46.7168 55.6063 46.7482 54.9981 46.7797C54.5682 46.7902 53.8133 46.7902 53.4882 46.7902C53.4148 46.7902 53.4043 46.7692 53.4043 46.6958V44.4623C53.4043 44.3889 53.4253 44.347 53.4882 44.347C53.8237 44.347 54.7255 44.368 55.124 44.3994C55.6483 44.4518 55.7741 44.5986 55.837 44.8398C55.8789 44.9971 55.8789 45.0915 55.8999 45.2383C55.9104 45.3326 55.9628 45.3851 56.0257 45.3851C56.0992 45.3851 56.1516 45.3012 56.1516 45.2173C56.183 44.5567 56.204 44.3365 56.2145 44.0744C56.2355 43.8332 56.2669 43.6969 56.2984 43.5606C56.3089 43.4976 56.2879 43.4452 56.225 43.4452C56.183 43.4452 56.1306 43.4557 56.0572 43.4872C55.8789 43.5291 55.6483 43.5396 55.4385 43.5396C55.2708 43.5396 52.4606 43.5501 52.2719 43.5501C51.8105 43.5501 51.2967 43.5186 50.6466 43.5186C50.4788 43.5186 50.4159 43.571 50.4159 43.6235C50.4159 43.6759 50.4368 43.7493 50.6046 43.7598C50.72 43.7703 50.8353 43.7703 50.9297 43.8017C51.1918 43.8437 51.2967 44.0219 51.3176 44.2841C51.3386 44.6301 51.3491 44.8188 51.3491 46.57V48.4259L51.3281 48.4155ZM39.6051 46.5595C39.6051 44.9132 39.6051 44.7559 39.626 44.4099C39.6365 44.0848 39.6785 43.8227 40.0769 43.7808C40.1608 43.7703 40.2762 43.7598 40.3496 43.7388C40.4964 43.7283 40.5488 43.6864 40.5488 43.613C40.5488 43.5396 40.5278 43.4872 40.3181 43.4872C39.9406 43.4872 38.546 43.5186 38.4936 43.5186C38.4516 43.5186 37.2038 43.4872 36.7739 43.4872C36.5537 43.4872 36.4908 43.5396 36.4908 43.592C36.4908 43.6759 36.5852 43.7178 36.711 43.7283C36.8263 43.7388 36.9312 43.7493 37.1095 43.7703C37.424 43.8332 37.5079 44.001 37.5184 44.2526C37.5499 44.5986 37.5499 44.8922 37.5499 46.5385V48.3945C37.5499 49.4326 37.5289 50.1351 37.4765 50.5755C37.4555 50.8796 37.4031 51.1313 37.0256 51.1837C36.9102 51.2047 36.8788 51.2047 36.7844 51.2152C36.6481 51.2256 36.5642 51.2676 36.5642 51.341C36.5642 51.4249 36.6586 51.4563 36.7844 51.4563C37.1409 51.4563 38.4516 51.4144 38.4831 51.4144C38.5355 51.4144 39.8148 51.4563 40.5593 51.4563C40.7061 51.4563 40.769 51.3934 40.769 51.3305C40.769 51.2781 40.7166 51.2256 40.5802 51.2152C40.4544 51.2047 40.2657 51.2047 40.1189 51.1837C39.7309 51.1313 39.647 50.8796 39.6156 50.607C39.5736 50.1666 39.5736 49.1914 39.5736 48.384V47.5032C40.36 48.6566 41.4191 50.1246 42.0587 50.7538C42.6354 51.299 43.1597 51.4458 44.6277 51.4458H45.7287C45.8441 51.4458 45.9489 51.4249 45.9489 51.3305C45.9489 51.2361 45.8965 51.2151 45.7287 51.2047C45.519 51.1732 45.3722 51.1418 45.1835 51.0369C45.0052 50.9425 44.7431 50.7538 44.1664 50.1561C43.3695 49.2963 41.6183 47.2096 41.2304 46.6014C41.5135 46.3078 42.6669 45.1229 43.1702 44.6616C43.6945 44.2002 44.051 43.8646 44.6382 43.7703C44.7641 43.7493 44.8479 43.7388 44.9947 43.7178C45.1206 43.7074 45.194 43.6549 45.194 43.592C45.194 43.5186 45.1415 43.4872 44.9528 43.4872C44.8165 43.4872 43.9986 43.5081 43.3275 43.5081C42.6564 43.5081 42.6564 43.4872 42.1531 43.4872C42.0168 43.4872 41.9644 43.5396 41.9644 43.592C41.9644 43.6654 42.0587 43.7074 42.1741 43.7178C42.4572 43.7598 42.4782 43.8332 42.4782 43.959C42.4782 44.1268 42.258 44.4099 41.9329 44.7664C40.9997 45.7835 40.2132 46.57 39.5736 47.1572V46.5385L39.6051 46.5595ZM28.6475 51.6346C29.329 51.6346 30.084 51.5717 30.5139 51.4039C30.6817 51.341 30.7761 51.2361 30.8075 51.0474C30.8914 50.5336 31.0382 49.6108 31.0382 49.4011C31.0382 49.2963 30.9963 49.2229 30.9229 49.2229C30.839 49.2229 30.797 49.2648 30.7551 49.4745C30.6817 49.7996 30.5349 50.0932 30.3986 50.2505C29.9687 50.7014 29.4444 50.7748 28.5846 50.7748C26.7181 50.7748 25.5856 49.2753 25.5856 47.1781C25.5856 46.0352 25.8897 45.081 26.5398 44.5672C26.9278 44.2421 27.4731 44.0953 28.0498 44.0953C29.1088 44.0953 29.8533 44.347 30.2308 44.7559C30.6083 45.1544 30.6188 45.5948 30.6293 45.8045C30.6398 45.9513 30.6817 46.0352 30.7656 46.0352C30.86 46.0352 30.8914 45.9408 30.9124 45.7835C30.9334 45.4794 30.9543 44.8608 30.9648 44.5148C30.9858 44.1582 31.0172 43.8542 31.0172 43.7703C31.0172 43.7074 31.0172 43.634 30.8914 43.6235C30.5664 43.6235 30.3462 43.571 29.8324 43.4872C29.4234 43.4242 28.8782 43.3613 28.2805 43.3613C26.7181 43.3613 25.5961 43.6549 24.6314 44.4309C23.5199 45.3222 23.2578 46.6539 23.2578 47.3669C23.2578 48.5098 23.5619 49.5899 24.6419 50.4707C25.8163 51.4039 27.2424 51.6346 28.6475 51.6346ZM14.6909 48.4155C14.6909 49.464 14.6805 50.198 14.6175 50.6384C14.5966 50.9425 14.5022 51.1627 14.261 51.2152C14.1142 51.2361 14.0094 51.2361 13.915 51.2466C13.7892 51.2466 13.7262 51.3095 13.7262 51.3619C13.7262 51.4458 13.7997 51.4878 13.9884 51.4878C14.3239 51.4878 15.5927 51.4458 15.6137 51.4458C15.6766 51.4458 16.9349 51.4878 17.6899 51.4878C17.8786 51.4878 17.9205 51.4249 17.9205 51.3724C17.9205 51.3095 17.8681 51.2466 17.6899 51.2466C17.564 51.2361 17.3858 51.2361 17.239 51.1942C16.9139 51.1208 16.8405 50.932 16.8091 50.6699C16.7566 50.219 16.7461 49.2229 16.7461 48.4155V46.5595C16.7461 44.9132 16.7461 44.6616 16.7881 44.3155C16.8405 43.9485 16.9349 43.8437 17.2285 43.7808C17.3543 43.7598 17.3648 43.7598 17.4697 43.7388C17.5955 43.7283 17.6899 43.7074 17.6899 43.613C17.6899 43.5396 17.6689 43.4872 17.4697 43.4872C17.0502 43.4872 15.6766 43.5186 15.6137 43.5186C15.5717 43.5186 14.4078 43.4872 13.9884 43.4872C13.7787 43.4872 13.7367 43.5501 13.7367 43.613C13.7367 43.6864 13.7996 43.7283 13.9464 43.7388C14.0933 43.7493 14.2086 43.7598 14.282 43.7808C14.5441 43.8227 14.6175 44.0114 14.649 44.2946C14.6909 44.6301 14.6909 44.9027 14.6909 46.549V48.405V48.4155ZM5.5264 44.3575C6.4072 44.3575 6.9944 44.4099 7.38237 44.4309C7.95909 44.4938 8.0954 44.7245 8.12686 45.0495C8.12686 45.1124 8.13735 45.1754 8.13735 45.3012C8.14783 45.427 8.20026 45.4899 8.26318 45.4899C8.32609 45.4899 8.37852 45.4375 8.38901 45.2697C8.39949 45.0076 8.47289 43.9171 8.47289 43.7912C8.47289 43.4872 8.48338 43.4242 8.35755 43.4242C8.30512 43.4242 8.21075 43.4452 8.00103 43.4872C7.85423 43.5081 7.66549 43.5396 7.34043 43.5396H2.46456C2.05562 43.5396 1.37404 43.4872 1.22724 43.4557C1.05947 43.4347 0.965098 43.3823 0.902184 43.3823C0.839269 43.3823 0.786839 43.4557 0.755382 43.613C0.671496 44.0953 0.566639 44.6511 0.51421 45.1649C0.503724 45.2907 0.524696 45.3851 0.608582 45.3851C0.681982 45.3851 0.723926 45.3012 0.744898 45.2278C0.786841 45.1544 0.807812 45.0705 0.828784 44.9971C0.965098 44.5672 1.17481 44.4204 1.7725 44.3889C2.30727 44.347 3.00982 44.368 3.42925 44.368V48.4259C3.42925 49.464 3.42925 50.2085 3.37682 50.6594C3.33488 50.9635 3.27196 51.1732 3.0203 51.2256C2.88399 51.2466 2.77913 51.2466 2.66379 51.2571C2.53796 51.2676 2.44359 51.3095 2.44359 51.3829C2.44359 51.4668 2.51699 51.4983 2.70573 51.4983C3.03079 51.4983 4.20519 51.4563 4.36248 51.4563C4.51977 51.4563 5.6732 51.4983 6.41769 51.4983C6.61692 51.4983 6.67983 51.4563 6.67983 51.4039C6.67983 51.3305 6.6274 51.2886 6.42817 51.2571C6.24991 51.2466 6.12409 51.2361 5.98777 51.2047C5.66271 51.1522 5.57883 50.8796 5.54737 50.6175C5.51591 50.1666 5.49494 49.2333 5.49494 48.4259V44.368L5.5264 44.3575Z" fill="#FE9B0E"/>
</svg>
